<svg width="56" height="23" viewBox="0 0 56 23" fill="none" xmlns="http://www.w3.org/2000/svg">
<rect width="56" height="23" rx="4" fill="#E0E3E3"/>
<path d="M11.33 9.38C9.76 9.38 8.48 10.59 8.48 12.25C8.48 13.89 9.74 15.12 11.33 15.12C12.93 15.12 14.18 13.9 14.18 12.25C14.18 10.59 12.91 9.38 11.33 9.38ZM11.33 10.46C12.28 10.46 13.04 11.19 13.04 12.25C13.04 13.31 12.29 14.04 11.33 14.04C10.37 14.04 9.62 13.31 9.62 12.25C9.62 11.19 10.38 10.46 11.33 10.46ZM18.2704 9.38C17.4004 9.38 16.7704 9.82 16.4404 10.59V9.5H15.3104V15H16.4404V12.48C16.4404 11.12 17.2304 10.54 18.2604 10.54C18.4104 10.54 18.5004 10.55 18.6004 10.56V9.41C18.5204 9.39 18.4104 9.38 18.2704 9.38ZM23.6822 9.5V10.44C23.2822 9.81 22.6122 9.38 21.7622 9.38C20.3122 9.38 19.2222 10.57 19.2222 12.22C19.2222 13.87 20.2922 15.06 21.7622 15.06C22.6122 15.06 23.2722 14.64 23.6822 14.03V14.97C23.6822 16.04 23.1322 16.61 22.1222 16.61C21.3822 16.61 20.7722 16.28 20.5822 15.57H19.4122C19.6522 16.94 20.8422 17.62 22.1522 17.62C23.7822 17.62 24.8122 16.57 24.8122 14.93V9.5H23.6822ZM22.0022 13.98C21.0522 13.98 20.3622 13.25 20.3622 12.22C20.3622 11.2 21.0422 10.46 22.0022 10.46C22.9622 10.46 23.6922 11.2 23.6922 12.22C23.6922 13.25 22.9622 13.98 22.0022 13.98ZM30.4107 9.5V10.44C30.0107 9.81 29.3507 9.38 28.4807 9.38C27.0407 9.38 25.9507 10.57 25.9507 12.25C25.9507 13.93 27.0207 15.12 28.4907 15.12C29.3507 15.12 30.0107 14.71 30.4107 14.08V15H31.5407V9.5H30.4107ZM28.7307 14.04C27.7807 14.04 27.0907 13.31 27.0907 12.25C27.0907 11.2 27.7707 10.46 28.7307 10.46C29.6907 10.46 30.4207 11.2 30.4207 12.25C30.4207 13.31 29.6907 14.04 28.7307 14.04ZM35.8292 9.38C34.9692 9.38 34.3792 9.77 33.9892 10.41V9.5H32.8592V15H33.9892V12.15C33.9892 11.09 34.5092 10.46 35.4792 10.46C36.3092 10.46 36.6792 10.91 36.6792 11.76V15H37.8092V11.53C37.8092 10.19 37.0692 9.38 35.8292 9.38ZM39.6399 7.02C39.2299 7.02 38.9099 7.31 38.9099 7.71C38.9099 8.12 39.2299 8.42 39.6399 8.42C40.0699 8.42 40.3799 8.12 40.3799 7.71C40.3799 7.31 40.0699 7.02 39.6399 7.02ZM39.0799 15H40.2099V9.5H39.0799V15ZM44.1913 15.12C45.4813 15.12 46.6413 14.35 46.9013 12.99H45.7313C45.5213 13.67 44.9113 14.07 44.1913 14.07C43.2013 14.07 42.4813 13.32 42.4813 12.25C42.4813 11.19 43.1813 10.43 44.2013 10.43C44.9113 10.43 45.5213 10.81 45.7313 11.5H46.9013C46.6513 10.17 45.5013 9.38 44.2013 9.38C42.5613 9.38 41.3413 10.61 41.3413 12.25C41.3413 13.89 42.5613 15.12 44.1913 15.12Z" fill="#2D3132"/>
</svg>
