<svg width="38" height="23" viewBox="0 0 38 23" fill="none" xmlns="http://www.w3.org/2000/svg">
<rect width="38" height="23" rx="4" fill="#B4FFF0"/>
<path d="M13.71 8H8.31V9.08H10.44V15H11.57V9.08H13.71V8ZM18.0094 7.88C15.9594 7.88 14.3794 9.44 14.3794 11.5C14.3794 13.56 15.9594 15.12 18.0094 15.12C20.0594 15.12 21.6294 13.56 21.6394 11.5C21.6294 9.44 20.0594 7.88 18.0094 7.88ZM18.0094 8.96C19.4194 8.96 20.4894 10.04 20.4894 11.5C20.4894 12.96 19.4194 14.04 18.0094 14.04C16.5894 14.04 15.5194 12.96 15.5194 11.5C15.5194 10.04 16.5894 8.96 18.0094 8.96ZM28.8204 8H24.1004H22.9704V15H24.1004V9.08H27.6904V15H28.8204V8Z" fill="#00382F"/>
</svg>
